<mxfile host="app.diagrams.net" modified="2024-07-18T18:12:35.569Z" agent="Mozilla/5.0 (Windows NT 10.0; Win64; x64; rv:128.0) Gecko/20100101 Firefox/128.0" etag="8wbZT4vYbziiQfCFMN63" version="24.6.4" type="device">
  <diagram name="Page-1" id="JRRY4IDI13fZ6xthAqS4">
    <mxGraphModel dx="819" dy="431" grid="1" gridSize="10" guides="1" tooltips="1" connect="1" arrows="1" fold="1" page="1" pageScale="1" pageWidth="1100" pageHeight="850" math="0" shadow="0">
      <root>
        <mxCell id="0" />
        <mxCell id="1" parent="0" />
        <mxCell id="WC8t9yPuWuJTC88gPnu0-1" value="&lt;span style=&quot;font-size: 16px;&quot;&gt;&lt;font face=&quot;Courier New&quot; style=&quot;font-size: 16px;&quot;&gt;a()&lt;/font&gt;&lt;/span&gt;" style="rounded=0;whiteSpace=wrap;html=1;fontSize=16;fontStyle=1" vertex="1" parent="1">
          <mxGeometry x="280" y="400" width="240" height="40" as="geometry" />
        </mxCell>
        <mxCell id="WC8t9yPuWuJTC88gPnu0-2" value="" style="endArrow=classic;html=1;rounded=0;" edge="1" parent="1">
          <mxGeometry width="50" height="50" relative="1" as="geometry">
            <mxPoint x="260" y="460" as="sourcePoint" />
            <mxPoint x="560" y="460" as="targetPoint" />
          </mxGeometry>
        </mxCell>
        <mxCell id="WC8t9yPuWuJTC88gPnu0-5" value="" style="endArrow=classic;html=1;rounded=0;" edge="1" parent="1">
          <mxGeometry width="50" height="50" relative="1" as="geometry">
            <mxPoint x="260" y="460" as="sourcePoint" />
            <mxPoint x="260" y="160" as="targetPoint" />
          </mxGeometry>
        </mxCell>
        <mxCell id="WC8t9yPuWuJTC88gPnu0-6" value="&lt;font face=&quot;Courier New&quot; style=&quot;font-size: 16px;&quot;&gt;b()&lt;/font&gt;" style="rounded=0;whiteSpace=wrap;html=1;fontSize=16;fontStyle=1" vertex="1" parent="1">
          <mxGeometry x="280" y="350" width="160" height="40" as="geometry" />
        </mxCell>
        <mxCell id="WC8t9yPuWuJTC88gPnu0-7" value="g()" style="rounded=0;whiteSpace=wrap;html=1;fontSize=16;fontStyle=1;fontFamily=Courier New;" vertex="1" parent="1">
          <mxGeometry x="450" y="350" width="70" height="40" as="geometry" />
        </mxCell>
        <mxCell id="WC8t9yPuWuJTC88gPnu0-8" value="h()" style="rounded=0;whiteSpace=wrap;html=1;fontSize=16;fontStyle=1;fontFamily=Courier New;" vertex="1" parent="1">
          <mxGeometry x="450" y="300" width="70" height="40" as="geometry" />
        </mxCell>
        <mxCell id="WC8t9yPuWuJTC88gPnu0-10" value="c()" style="rounded=0;whiteSpace=wrap;html=1;fontFamily=Courier New;fontSize=16;fontStyle=1" vertex="1" parent="1">
          <mxGeometry x="280" y="300" width="160" height="40" as="geometry" />
        </mxCell>
        <mxCell id="WC8t9yPuWuJTC88gPnu0-11" value="e()" style="rounded=0;whiteSpace=wrap;html=1;fontFamily=Courier New;fontSize=16;fontStyle=1" vertex="1" parent="1">
          <mxGeometry x="280" y="250" width="50" height="40" as="geometry" />
        </mxCell>
        <mxCell id="WC8t9yPuWuJTC88gPnu0-12" value="d()" style="rounded=0;whiteSpace=wrap;html=1;fontSize=16;fontStyle=1;fontFamily=Courier New;" vertex="1" parent="1">
          <mxGeometry x="340" y="250" width="100" height="40" as="geometry" />
        </mxCell>
        <mxCell id="WC8t9yPuWuJTC88gPnu0-13" value="&lt;div style=&quot;font-size: 16px;&quot;&gt;f()&lt;/div&gt;" style="rounded=0;whiteSpace=wrap;html=1;fontFamily=Courier New;fontSize=16;fontStyle=1" vertex="1" parent="1">
          <mxGeometry x="380" y="200" width="60" height="40" as="geometry" />
        </mxCell>
        <mxCell id="WC8t9yPuWuJTC88gPnu0-14" value="CPU time spent" style="text;html=1;align=center;verticalAlign=middle;whiteSpace=wrap;rounded=0;fontStyle=1" vertex="1" parent="1">
          <mxGeometry x="350" y="460" width="120" height="30" as="geometry" />
        </mxCell>
        <mxCell id="WC8t9yPuWuJTC88gPnu0-15" value="Ancestry / stack trace" style="text;html=1;align=center;verticalAlign=middle;whiteSpace=wrap;rounded=0;fontStyle=1;rotation=-90;" vertex="1" parent="1">
          <mxGeometry x="175" y="295" width="130" height="30" as="geometry" />
        </mxCell>
        <mxCell id="WC8t9yPuWuJTC88gPnu0-16" value="" style="endArrow=none;html=1;rounded=0;" edge="1" parent="1" target="WC8t9yPuWuJTC88gPnu0-17">
          <mxGeometry width="50" height="50" relative="1" as="geometry">
            <mxPoint x="520" y="420" as="sourcePoint" />
            <mxPoint x="570" y="370" as="targetPoint" />
          </mxGeometry>
        </mxCell>
        <mxCell id="WC8t9yPuWuJTC88gPnu0-17" value="Function close to the user" style="text;html=1;align=center;verticalAlign=middle;whiteSpace=wrap;rounded=0;" vertex="1" parent="1">
          <mxGeometry x="540" y="350" width="80" height="30" as="geometry" />
        </mxCell>
        <mxCell id="WC8t9yPuWuJTC88gPnu0-18" value="" style="endArrow=none;html=1;rounded=0;" edge="1" parent="1" target="WC8t9yPuWuJTC88gPnu0-19">
          <mxGeometry width="50" height="50" relative="1" as="geometry">
            <mxPoint x="440" y="220" as="sourcePoint" />
            <mxPoint x="500" y="230" as="targetPoint" />
          </mxGeometry>
        </mxCell>
        <mxCell id="WC8t9yPuWuJTC88gPnu0-19" value="Function close to the hardware" style="text;html=1;align=center;verticalAlign=middle;whiteSpace=wrap;rounded=0;" vertex="1" parent="1">
          <mxGeometry x="470" y="215" width="90" height="30" as="geometry" />
        </mxCell>
      </root>
    </mxGraphModel>
  </diagram>
</mxfile>
